<svg xmlns="http://www.w3.org/2000/svg" width="1920" height="1080" viewBox="0 0 1920 1080">
  <defs>
    <linearGradient id="bg" x1="0" y1="0" x2="1" y2="1">
      <stop offset="0" stop-color="#061014"/>
      <stop offset="0.42" stop-color="#081820"/>
      <stop offset="1" stop-color="#032332"/>
    </linearGradient>
    <linearGradient id="cyan" x1="0" y1="0" x2="1" y2="1">
      <stop offset="0" stop-color="#00D4F6"/>
      <stop offset="1" stop-color="#2FA8FF"/>
    </linearGradient>
    <linearGradient id="soft" x1="0" y1="0" x2="1" y2="1">
      <stop offset="0" stop-color="#E2FBFF"/>
      <stop offset="1" stop-color="#75CDFF"/>
    </linearGradient>
    <filter id="glow" x="-60%" y="-60%" width="220%" height="220%">
      <feGaussianBlur stdDeviation="12" result="blur"/>
      <feColorMatrix in="blur" type="matrix" values="0 0 0 0 0  0 0 0 0 0.83  0 0 0 0 0.96  0 0 0 .7 0"/>
      <feMerge>
        <feMergeNode/>
        <feMergeNode in="SourceGraphic"/>
      </feMerge>
    </filter>
    <filter id="shadow" x="-20%" y="-20%" width="140%" height="140%">
      <feDropShadow dx="0" dy="18" stdDeviation="24" flood-color="#000" flood-opacity=".45"/>
    </filter>
    <pattern id="grid" width="48" height="48" patternUnits="userSpaceOnUse">
      <path d="M48 0H0V48" fill="none" stroke="#75CDFF" stroke-opacity=".05"/>
    </pattern>
    <style>
      text{font-family:"Microsoft YaHei","PingFang SC",Arial,sans-serif}
      .en{font-family:"Montserrat","Microsoft YaHei",Arial,sans-serif;letter-spacing:1px}
      .thin{fill:#93C9E6}
      .muted{fill:#6F8794}
      .white{fill:#E2FBFF}
      .cyan{fill:#00D4F6}
      .small{font-size:22px}
      .body{font-size:27px;line-height:1.6}
      .label{font-size:24px;font-weight:700}
      .title{font-size:58px;font-weight:900}
      .cardTitle{font-size:28px;font-weight:800}
      .caption{font-size:20px}
    </style>
  </defs>

  <rect width="1920" height="1080" fill="#111"/>
  <rect x="64" y="54" width="1792" height="972" fill="url(#bg)"/>
  <rect x="64" y="54" width="1792" height="972" fill="url(#grid)" opacity=".72"/>
  <circle cx="1550" cy="150" r="440" fill="#2FA8FF" opacity=".18" filter="url(#glow)"/>
  <circle cx="180" cy="90" r="320" fill="#00D4F6" opacity=".11" filter="url(#glow)"/>

  <text x="136" y="128" class="thin en" font-size="20">+[DESIGN BY LIUYANMEI]</text>
  <text x="850" y="128" class="thin en" font-size="20">—— [ UI PORTFOLIO ]</text>
  <text x="1595" y="128" class="thin en" font-size="20">[TIME 2026]+</text>

  <text x="136" y="218" class="white title">AI辅助设计方案推导与快速落地 ↓</text>
  <text x="136" y="292" class="thin body">基于业务目标与用户任务，使用 AI 快速生成多版布局方向，再由设计师筛选可执行方案，</text>
  <text x="136" y="335" class="thin body">并通过 Vibe Coding 验证页面结构、操作路径与原型落地可行性。</text>

  <g transform="translate(136 398)">
    <rect x="0" y="0" width="456" height="468" rx="18" fill="#07161B" stroke="#21414A" stroke-width="1.5"/>
    <text x="34" y="52" class="white label">AI 工作流</text>
    <g transform="translate(34 92)">
      <circle cx="18" cy="18" r="18" fill="url(#cyan)"/>
      <text x="12" y="26" fill="#fff" font-size="20" font-weight="800">1</text>
      <text x="58" y="18" class="white label">输入目标</text>
      <text x="58" y="52" class="muted small">业务诉求 / 用户角色 / 核心场景</text>
    </g>
    <g transform="translate(34 182)">
      <circle cx="18" cy="18" r="18" fill="url(#cyan)"/>
      <text x="12" y="26" fill="#fff" font-size="20" font-weight="800">2</text>
      <text x="58" y="18" class="white label">生成方案</text>
      <text x="58" y="52" class="muted small">Stitch 快速产出多版布局草稿</text>
    </g>
    <g transform="translate(34 272)">
      <circle cx="18" cy="18" r="18" fill="url(#cyan)"/>
      <text x="12" y="26" fill="#fff" font-size="20" font-weight="800">3</text>
      <text x="58" y="18" class="white label">筛选方向</text>
      <text x="58" y="52" class="muted small">对比信息层级、适配性与成本</text>
    </g>
    <g transform="translate(34 362)">
      <circle cx="18" cy="18" r="18" fill="url(#cyan)"/>
      <text x="12" y="26" fill="#fff" font-size="20" font-weight="800">4</text>
      <text x="58" y="18" class="white label">原型验证</text>
      <text x="58" y="52" class="muted small">用 Vibe Coding 验证可用性</text>
    </g>
  </g>

  <g transform="translate(650 396)">
    <g filter="url(#shadow)">
      <rect x="0" y="0" width="340" height="318" rx="18" fill="#F7FCFF"/>
      <rect x="24" y="26" width="292" height="124" rx="10" fill="#EAF4F8"/>
      <rect x="44" y="50" width="70" height="34" rx="10" fill="#DCE9EF"/>
      <rect x="132" y="50" width="70" height="34" rx="10" fill="#DCE9EF"/>
      <rect x="220" y="50" width="70" height="34" rx="10" fill="#DCE9EF"/>
      <rect x="44" y="104" width="110" height="20" rx="10" fill="#C9DCE4"/>
      <rect x="178" y="104" width="112" height="20" rx="10" fill="#C9DCE4"/>
      <text x="28" y="196" fill="#1A2C36" class="cardTitle">方案一 数据看板</text>
      <text x="28" y="242" fill="#526774" class="small">入口直观，适配性强</text>
      <text x="28" y="276" fill="#526774" class="small">适合作为基底迭代</text>
    </g>
    <g transform="translate(382 0)" opacity=".58">
      <rect x="0" y="0" width="340" height="318" rx="18" fill="#DDE7EE"/>
      <rect x="24" y="26" width="292" height="124" rx="10" fill="#C9D5DD"/>
      <path d="M48 122 L94 78 L138 98 L180 52 L232 82 L292 44" fill="none" stroke="#7C8A93" stroke-width="8" stroke-linecap="round"/>
      <text x="28" y="196" fill="#1A2C36" class="cardTitle">方案二 图表融合</text>
      <text x="28" y="242" fill="#526774" class="small">数据分析完整</text>
      <text x="28" y="276" fill="#526774" class="small">但信息密度偏高</text>
    </g>
    <g transform="translate(764 0)" opacity=".58">
      <rect x="0" y="0" width="340" height="318" rx="18" fill="#DDE7EE"/>
      <rect x="24" y="28" width="292" height="124" rx="10" fill="#CBD7DF"/>
      <rect x="44" y="52" width="110" height="22" rx="8" fill="#9EABB4"/>
      <rect x="44" y="90" width="110" height="22" rx="8" fill="#9EABB4"/>
      <rect x="184" y="52" width="82" height="60" rx="12" fill="#AAB6BF"/>
      <text x="28" y="196" fill="#1A2C36" class="cardTitle">方案三 任务待办</text>
      <text x="28" y="242" fill="#526774" class="small">流程清晰</text>
      <text x="28" y="276" fill="#526774" class="small">但偏单角色办公</text>
    </g>
  </g>

  <g transform="translate(650 760)">
    <rect x="0" y="0" width="720" height="126" rx="18" fill="#F8FCFF"/>
    <rect x="34" y="26" width="220" height="74" rx="10" fill="#0B1217"/>
    <path d="M56 82 H230" stroke="#00D4F6" stroke-width="3" opacity=".75"/>
    <path d="M56 48 H180" stroke="#75CDFF" stroke-width="3" opacity=".5"/>
    <text x="286" y="48" fill="#172832" font-size="30" font-weight="800">Vibe Coding</text>
    <text x="286" y="88" fill="#546875" class="small">用 Stitch + Figma + Trae 生成交互 Demo，验证方案可用性。</text>
  </g>

  <g transform="translate(136 918)">
    <rect x="0" y="0" width="1648" height="70" rx="12" fill="#2FA8FF" opacity=".95"/>
    <text x="44" y="45" fill="#fff" font-size="26" font-weight="800">结论：以方案一为基底迭代，保留模块化聚合与低学习成本优势，补充数据看板和可视化大屏能力。</text>
  </g>
</svg>
